<?xml version="1.0" encoding="UTF-8"?>
<svg xmlns="http://www.w3.org/2000/svg" xmlns:xlink="http://www.w3.org/1999/xlink" width="79pt" height="38pt" viewBox="0 0 79 38" version="1.1">
<g id="surface1">
<path style=" stroke:none;fill-rule:nonzero;fill:rgb(0%,0%,0%);fill-opacity:1;" d="M 8.585938 3.085938 C 6.765625 3.480469 4.691406 5.527344 3.78125 7.855469 C 3.554688 8.417969 3.234375 9.039062 3.039062 9.246094 C 2.714844 9.625 2.730469 10.160156 3.09375 10.160156 C 3.179688 10.160156 3.261719 10.382812 3.261719 10.675781 C 3.261719 12.261719 4.328125 14.945312 5.40625 16.066406 C 6.011719 16.683594 6.527344 16.890625 6.527344 16.5 C 6.527344 16.390625 6.179688 15.632812 5.769531 14.828125 C 5.070312 13.429688 4.382812 11.550781 4.535156 11.417969 C 4.566406 11.363281 4.761719 11.433594 4.945312 11.550781 C 5.207031 11.703125 5.40625 11.726562 5.703125 11.589844 C 6.09375 11.417969 6.09375 11.394531 5.492188 11.15625 C 4.605469 10.777344 4.414062 10.453125 4.511719 9.539062 C 4.621094 8.542969 5.339844 7.160156 6.441406 5.867188 C 7.128906 5.0625 7.523438 4.753906 8.378906 4.40625 C 9.597656 3.890625 10.421875 3.859375 12.226562 4.199219 C 13.996094 4.546875 14.597656 4.839844 16.832031 6.441406 C 17.914062 7.230469 19.511719 8.265625 20.367188 8.726562 C 21.222656 9.214844 22.203125 9.796875 22.550781 10.035156 C 22.890625 10.28125 24.09375 10.761719 25.195312 11.101562 C 27.789062 11.929688 30.140625 12.894531 33.785156 14.605469 C 40.84375 17.945312 43.96875 18.800781 48.875 18.785156 C 52.328125 18.785156 56.757812 18.058594 57.566406 17.386719 C 58.0625 16.976562 58.015625 16.976562 55.386719 17.285156 C 51.8125 17.734375 48.757812 17.804688 46.28125 17.496094 C 42.695312 17.0625 40.308594 16.25 34.347656 13.429688 C 29.679688 11.226562 25.621094 9.640625 24.578125 9.640625 C 24.417969 9.640625 24.132812 9.539062 23.9375 9.417969 C 21.777344 8.164062 18.121094 5.90625 16.695312 4.980469 C 15.589844 4.238281 14.496094 3.664062 13.769531 3.441406 C 12.519531 3.046875 9.621094 2.835938 8.585938 3.085938 Z M 8.585938 3.085938 "/>
<path style=" stroke:none;fill-rule:nonzero;fill:rgb(0%,0%,0%);fill-opacity:1;" d="M 7.074219 6.988281 C 6.664062 7.265625 6.582031 7.902344 6.867188 8.457031 C 7.113281 8.882812 8.085938 8.898438 8.464844 8.472656 C 9.066406 7.816406 8.585938 6.71875 7.730469 6.71875 C 7.574219 6.71875 7.28125 6.835938 7.074219 6.988281 Z M 7.074219 6.988281 "/>
<path style=" stroke:none;fill-rule:nonzero;fill:rgb(0%,0%,0%);fill-opacity:1;" d="M 60.933594 9.796875 C 59.164062 10.382812 57.722656 11.378906 56.84375 12.640625 C 56.3125 13.429688 55.988281 14.636719 56.3125 14.636719 C 56.417969 14.636719 57.136719 14.046875 57.90625 13.328125 C 58.703125 12.601562 59.558594 11.898438 59.835938 11.757812 C 62.769531 10.242188 65.691406 10.722656 65.691406 12.742188 C 65.691406 13.242188 65.5 13.667969 64.988281 14.410156 C 64.125 15.648438 64.011719 15.941406 64.234375 16.375 C 64.503906 16.855469 65.246094 16.785156 66.855469 16.121094 C 71.769531 14.085938 73.863281 13.824219 74.878906 15.097656 C 75.929688 16.429688 74.449219 18.355469 71.507812 19.527344 C 67.714844 21.003906 60.382812 21.957031 55.609375 21.554688 L 53.203125 21.367188 L 49.960938 22.984375 C 45.1875 25.398438 42.402344 26.449219 37.179688 27.808594 C 34.207031 28.582031 30.398438 29.441406 29.949219 29.441406 C 29.726562 29.441406 29.75 29.355469 30.019531 28.960938 C 31.121094 27.390625 30.464844 26.292969 27.1875 24.261719 C 26.121094 23.585938 24.863281 22.746094 24.386719 22.367188 C 23.445312 21.609375 23.183594 21.539062 23.183594 22.019531 C 23.183594 22.464844 24.179688 23.261719 26.738281 24.878906 C 28.785156 26.15625 29.710938 26.980469 29.710938 27.476562 C 29.710938 27.839844 29.386719 27.769531 28.011719 27.121094 C 27.304688 26.773438 26.707031 26.546875 26.65625 26.601562 C 26.378906 26.882812 28.265625 28.0625 29.007812 28.0625 C 29.191406 28.0625 29.371094 28.132812 29.371094 28.203125 C 29.371094 28.34375 28.730469 28.976562 28.113281 29.425781 C 27.703125 29.734375 25.914062 30.152344 25.675781 29.972656 C 25.589844 29.902344 25.226562 29.734375 24.902344 29.617188 C 24.578125 29.496094 23.976562 29.167969 23.5625 28.890625 C 23.152344 28.636719 22.734375 28.410156 22.621094 28.410156 C 22.273438 28.410156 23.222656 29.214844 24.109375 29.6875 L 24.957031 30.128906 L 24.355469 30.128906 C 24.007812 30.128906 23.199219 29.957031 22.566406 29.773438 C 20.160156 29.03125 19.117188 28.21875 18.683594 26.84375 C 18.585938 26.449219 18.375 26.085938 18.238281 26.03125 C 17.828125 25.875 17.34375 26.632812 17.34375 27.414062 C 17.34375 28.328125 17.707031 28.960938 18.683594 29.71875 L 19.496094 30.335938 L 18.375 30.222656 C 13.738281 29.6875 10.335938 27.136719 8.726562 22.953125 C 8.347656 21.988281 8.191406 21.199219 8.070312 19.660156 C 7.984375 18.5625 7.847656 17.410156 7.761719 17.132812 L 7.605469 16.613281 L 7.421875 17.21875 C 6.558594 19.953125 6.78125 21.957031 8.246094 24.777344 C 9.890625 27.949219 12.46875 30.011719 15.984375 30.992188 C 18.632812 31.714844 24.332031 31.867188 27.21875 31.289062 C 27.972656 31.132812 30.058594 30.714844 31.839844 30.375 C 39.722656 28.859375 44.261719 27.359375 50.410156 24.230469 L 53.15625 22.816406 L 57.019531 22.867188 C 61.308594 22.9375 63.761719 22.746094 66.980469 22.109375 C 71.167969 21.285156 73.847656 20.246094 75.203125 18.925781 C 76.816406 17.355469 77.039062 15.421875 75.765625 14.046875 C 74.332031 12.515625 72.109375 12.53125 68.113281 14.101562 C 67.359375 14.394531 66.71875 14.605469 66.6875 14.566406 C 66.648438 14.535156 66.757812 14.1875 66.910156 13.792969 C 67.472656 12.347656 66.789062 10.691406 65.273438 9.949219 C 64.195312 9.417969 62.273438 9.347656 60.933594 9.796875 Z M 60.933594 9.796875 "/>
<path style=" stroke:none;fill-rule:nonzero;fill:rgb(0%,0%,0%);fill-opacity:1;" d="M 25.074219 27.683594 C 25.074219 28.117188 26.980469 29.441406 27.617188 29.441406 C 28.167969 29.441406 28.082031 29.144531 27.496094 29.015625 C 27.21875 28.960938 26.554688 28.597656 26.039062 28.21875 C 25.503906 27.839844 25.074219 27.601562 25.074219 27.683594 Z M 25.074219 27.683594 "/>
</g>
</svg>
